<?xml version="1.0" encoding="UTF-8" standalone="no"?>
<!-- Generator: Adobe Illustrator 25.0.1, SVG Export Plug-In . SVG Version: 6.00 Build 0)  -->

<svg
   version="1.1"
   id="Layer_1"
   x="0px"
   y="0px"
   viewBox="0 0 1280 1280"
   xml:space="preserve"
   sodipodi:docname="Ubuntu_WSL_Preview_128px.svg"
   width="1280"
   height="1280"
   inkscape:version="1.1.2 (0a00cf5339, 2022-02-04)"
   xmlns:inkscape="http://www.inkscape.org/namespaces/inkscape"
   xmlns:sodipodi="http://sodipodi.sourceforge.net/DTD/sodipodi-0.dtd"
   xmlns="http://www.w3.org/2000/svg"
   xmlns:svg="http://www.w3.org/2000/svg"><defs
   id="defs27" /><sodipodi:namedview
   id="namedview25"
   pagecolor="#ffffff"
   bordercolor="#111111"
   borderopacity="1"
   inkscape:pageshadow="0"
   inkscape:pageopacity="0"
   inkscape:pagecheckerboard="1"
   showgrid="false"
   fit-margin-top="0"
   fit-margin-left="0"
   fit-margin-right="0"
   fit-margin-bottom="0"
   inkscape:zoom="0.38047958"
   inkscape:cx="641.29592"
   inkscape:cy="639.98178"
   inkscape:window-width="1920"
   inkscape:window-height="1016"
   inkscape:window-x="0"
   inkscape:window-y="27"
   inkscape:window-maximized="1"
   inkscape:current-layer="g22" />
<style
   type="text/css"
   id="style2">
	.st0 { 
    fill:#fff;
}
	.st1{fill:#E65821;}
	.st2{fill:none;stroke:#E65821;stroke-width:1.5;stroke-miterlimit:10;}
</style>
<g
   id="g22"
   transform="scale(10)">
	<rect
   class="st0"
   width="128"
   height="128"
   id="rect4"
   x="0"
   y="0"
   style="" />
	<g
   id="g8">
		<path
   class="st1"
   d="m 107.5,1.5 v 125 h -87 V 1.5 h 87 M 109,0 H 19 v 128 h 90 z"
   id="path6" />
	</g>
	<circle
   class="st2"
   cx="38.599998"
   cy="80.900002"
   r="9.3999996"
   id="circle10" />
	<circle
   class="st2"
   cx="78"
   cy="60.200001"
   r="9.3999996"
   id="circle12" />
	<path
   class="st2"
   d="m 59.9,105.2 c -6.8,-1.4 -12.5,-5.8 -15.7,-12 -2.5,1.2 -5.4,1.5 -8.1,1 3.8,9.5 12.1,16.4 22.1,18.6 2.2,0.5 4.5,0.7 6.7,0.7 -1.7,-2.3 -2.7,-5 -2.8,-7.9 -0.6,-0.1 -1.4,-0.3 -2.2,-0.4 z"
   id="path14" />
	<circle
   class="st2"
   cx="75.800003"
   cy="105.2"
   r="9.3999996"
   id="circle16" />
	<path
   class="st2"
   d="m 89,101.8 c 8.3,-10.5 8.9,-25.1 1.6,-36.3 -1.1,2.6 -2.9,4.7 -5.3,6.2 3.8,7.2 3.5,16 -0.8,23 2.2,1.8 3.8,4.3 4.5,7.1 z"
   id="path18" />
	<path
   class="st2"
   d="m 37.9,67.3 h 0.7 c 1,0 1.9,0.1 2.9,0.3 1.5,0.3 3,0.9 4.3,1.7 4.2,-6.1 11.1,-9.8 18.5,-9.9 0,-0.7 0.1,-1.4 0.3,-2.1 0.4,-2 1.3,-3.9 2.6,-5.5 -11.9,-0.9 -23.3,5.1 -29.3,15.5 z"
   id="path20" />
</g>
</svg>
