<?xml version="1.0" encoding="UTF-8" standalone="no"?>
<svg
   id="Layer_2"
   data-name="Layer 2"
   viewBox="0 0 2480 1200"
   version="1.1"
   sodipodi:docname="Ubuntu_WSL_Standard_1280px.svg"
   width="2480"
   height="1200"
   inkscape:version="1.1.2 (0a00cf5339, 2022-02-04)"
   xmlns:inkscape="http://www.inkscape.org/namespaces/inkscape"
   xmlns:sodipodi="http://sodipodi.sourceforge.net/DTD/sodipodi-0.dtd"
   xmlns="http://www.w3.org/2000/svg"
   xmlns:svg="http://www.w3.org/2000/svg">
  <sodipodi:namedview
     id="namedview23"
     pagecolor="#ffffff"
     bordercolor="#111111"
     borderopacity="1"
     inkscape:pageshadow="0"
     inkscape:pageopacity="0"
     inkscape:pagecheckerboard="1"
     showgrid="false"
     fit-margin-top="0"
     fit-margin-left="0"
     fit-margin-right="0"
     fit-margin-bottom="0"
     inkscape:zoom="0.26124924"
     inkscape:cx="1240.195"
     inkscape:cy="717.70544"
     inkscape:window-width="1920"
     inkscape:window-height="1016"
     inkscape:window-x="0"
     inkscape:window-y="27"
     inkscape:window-maximized="1"
     inkscape:current-layer="Layer_2" />
  <defs
     id="defs4">
    <style
       id="style2">
.cls-1 { 
    fill:#fff;
}.cls-2{fill:#e95420;}.cls-3{fill:#fff;}</style>
  </defs>
  <rect
     class="cls-1"
     width="2480"
     height="1200"
     id="rect6"
     x="0"
     y="0"
     style="stroke-width:13.4774" />
  <rect
     class="cls-2"
     x="818.125"
     width="843.75"
     height="1200"
     id="rect8"
     y="0"
     style="stroke-width:9.375" />
  <circle
     class="cls-3"
     cx="1001.875"
     cy="758.4375"
     r="88.125"
     id="circle10"
     style="stroke-width:9.375" />
  <circle
     class="cls-3"
     cx="1371.25"
     cy="564.375"
     r="88.125"
     id="circle12"
     style="stroke-width:9.375" />
  <path
     class="cls-3"
     d="m 1201.5625,986.25 a 213.9375,213.9375 0 0 1 -147.1875,-112.5 124.59375,124.59375 0 0 1 -75.9375,9.375 289.125,289.125 0 0 0 207.1875,174.375 286.03125,286.03125 0 0 0 62.8125,6.5625 131.25,131.25 0 0 1 -26.25,-74.0625 c -5.625,-0.9375 -13.125,-2.8125 -20.625,-3.75 z"
     id="path14"
     style="stroke-width:9.375" />
  <circle
     class="cls-3"
     cx="1350.625"
     cy="986.25"
     r="88.125"
     id="circle16"
     style="stroke-width:9.375" />
  <path
     class="cls-3"
     d="m 1474.375,954.375 a 291.65625,291.65625 0 0 0 15,-340.3125 125.0625,125.0625 0 0 1 -49.6875,58.125 218.53125,218.53125 0 0 1 -7.5,215.625 125.71875,125.71875 0 0 1 42.1875,66.5625 z"
     id="path18"
     style="stroke-width:9.375" />
  <path
     class="cls-3"
     d="m 995.3125,630.9375 h 6.5625 a 133.875,133.875 0 0 1 27.1875,2.8125 124.96875,124.96875 0 0 1 40.3125,15.9375 214.3125,214.3125 0 0 1 173.4375,-92.8125 71.34375,71.34375 0 0 1 2.8125,-19.6875 A 119.15625,119.15625 0 0 1 1270,485.625 291.75,291.75 0 0 0 995.3125,630.9375 Z"
     id="path20"
     style="stroke-width:9.375" />
</svg>
