<?xml version="1.0" encoding="UTF-8" standalone="no"?>
<svg
   id="Layer_2"
   data-name="Layer 2"
   viewBox="0 0 1280 1280"
   version="1.1"
   sodipodi:docname="Ubuntu_WSL_Standard_128px.svg"
   width="1280"
   height="1280"
   inkscape:version="1.1.2 (0a00cf5339, 2022-02-04)"
   xmlns:inkscape="http://www.inkscape.org/namespaces/inkscape"
   xmlns:sodipodi="http://sodipodi.sourceforge.net/DTD/sodipodi-0.dtd"
   xmlns="http://www.w3.org/2000/svg"
   xmlns:svg="http://www.w3.org/2000/svg">
  <sodipodi:namedview
     id="namedview23"
     pagecolor="#ffffff"
     bordercolor="#111111"
     borderopacity="1"
     inkscape:pageshadow="0"
     inkscape:pageopacity="0"
     inkscape:pagecheckerboard="1"
     showgrid="false"
     fit-margin-top="0"
     fit-margin-left="0"
     fit-margin-right="0"
     fit-margin-bottom="0"
     inkscape:zoom="0.50383782"
     inkscape:cx="639.09455"
     inkscape:cy="640.08693"
     inkscape:window-width="1920"
     inkscape:window-height="1016"
     inkscape:window-x="0"
     inkscape:window-y="27"
     inkscape:window-maximized="1"
     inkscape:current-layer="Layer_2" />
  <defs
     id="defs4">
    <style
       id="style2">
.cls-1 { 
    fill:#fff;
}.cls-2{fill:#e95420;}.cls-3{fill:#fff;}</style>
  </defs>
  <rect
     class="cls-1"
     width="1280"
     height="1280"
     id="rect6"
     x="0"
     y="0"
     style="stroke-width:10" />
  <rect
     class="cls-2"
     x="190"
     width="900"
     height="1280"
     id="rect8"
     y="0"
     style="stroke-width:10" />
  <circle
     class="cls-3"
     cx="386"
     cy="809"
     r="94"
     id="circle10"
     style="stroke-width:10" />
  <circle
     class="cls-3"
     cx="780"
     cy="602"
     r="94"
     id="circle12"
     style="stroke-width:10" />
  <path
     class="cls-3"
     d="m 599,1052 a 228.2,228.2 0 0 1 -157,-120 132.9,132.9 0 0 1 -81,10 308.4,308.4 0 0 0 221,186 305.1,305.1 0 0 0 67,7 140,140 0 0 1 -28,-79 c -6,-1 -14,-3 -22,-4 z"
     id="path14"
     style="stroke-width:10" />
  <circle
     class="cls-3"
     cx="758"
     cy="1052"
     r="94"
     id="circle16"
     style="stroke-width:10" />
  <path
     class="cls-3"
     d="m 890,1018 a 311.1,311.1 0 0 0 16,-363 133.4,133.4 0 0 1 -53,62 233.1,233.1 0 0 1 -8,230 134.1,134.1 0 0 1 45,71 z"
     id="path18"
     style="stroke-width:10" />
  <path
     class="cls-3"
     d="m 379,673 h 7 a 142.8,142.8 0 0 1 29,3 133.3,133.3 0 0 1 43,17 228.6,228.6 0 0 1 185,-99 76.1,76.1 0 0 1 3,-21 127.1,127.1 0 0 1 26,-55 311.2,311.2 0 0 0 -293,155 z"
     id="path20"
     style="stroke-width:10" />
</svg>
