<?xml version="1.0" encoding="UTF-8" standalone="no"?>
<svg
   id="Layer_1"
   data-name="Layer 1"
   viewBox="0 0 2480 1200"
   version="1.1"
   sodipodi:docname="Ubuntu_WSL_Standard_128px.svg"
   width="2480"
   height="1200"
   inkscape:version="1.1.1 (3bf5ae0d25, 2021-09-20)"
   xmlns:inkscape="http://www.inkscape.org/namespaces/inkscape"
   xmlns:sodipodi="http://sodipodi.sourceforge.net/DTD/sodipodi-0.dtd"
   xmlns="http://www.w3.org/2000/svg"
   xmlns:svg="http://www.w3.org/2000/svg">
  <sodipodi:namedview
     id="namedview11"
     pagecolor="#898989"
     bordercolor="#666666"
     borderopacity="1.0"
     inkscape:pageshadow="2"
     inkscape:pageopacity="0"
     inkscape:pagecheckerboard="true"
     showgrid="false"
     inkscape:zoom="0.42903226"
     inkscape:cx="1240"
     inkscape:cy="600.18797"
     inkscape:window-width="1920"
     inkscape:window-height="1016"
     inkscape:window-x="0"
     inkscape:window-y="27"
     inkscape:window-maximized="1"
     inkscape:current-layer="Layer_1" />
  <defs
     id="defs4">
    <style
       id="style2">.cls-1{fill:#e95420;}.cls-2{fill:#fff;}</style>
  </defs>
  <rect
     class="cls-2"
     id="rect47"
     width="2480"
     height="1200"
     x="0"
     y="0"
     style="stroke-width:1.34774" />
  <g
     id="g23"
     transform="matrix(9.3518292,0,0,9.3405576,639.99998,0)">
    <circle
       class="cls-1"
       cx="64"
       cy="64"
       r="64"
       id="circle6" />
    <path
       class="cls-2"
       d="M 30.79,64 A 8.23,8.23 0 1 1 22.55,55.77 8.23,8.23 0 0 1 30.79,64 Z m 46.81,40 a 8.23,8.23 0 1 0 3,-11.24 8.23,8.23 0 0 0 -3,11.24 z M 91.85,32.22 a 8.23,8.23 0 1 0 -11.24,3 8.22,8.22 0 0 0 11.24,-3 z M 64,40.53 A 23.46,23.46 0 0 1 87.37,61.92 L 99.28,61.74 A 35.22,35.22 0 0 0 88.9,38.91 a 11.58,11.58 0 0 1 -15.62,-9 35.49,35.49 0 0 0 -25,2.43 l 5.8,10.4 A 23.46,23.46 0 0 1 64,40.53 Z M 40.54,64 a 23.43,23.43 0 0 1 10,-19.2 L 44.4,34.58 A 35.44,35.44 0 0 0 29.81,55 a 11.56,11.56 0 0 1 0,18 35.49,35.49 0 0 0 14.59,20.43 L 50.51,83.2 A 23.43,23.43 0 0 1 40.54,64 Z M 64,87.47 a 23.39,23.39 0 0 1 -9.89,-2.18 l -5.79,10.4 A 35.12,35.12 0 0 0 64,99.35 35.52,35.52 0 0 0 73.28,98.12 11.58,11.58 0 0 1 88.9,89.12 35.27,35.27 0 0 0 99.28,66.27 L 87.37,66.08 A 23.46,23.46 0 0 1 64,87.47 Z"
       id="path8" />
  </g>
</svg>
