<?xml version="1.0" encoding="UTF-8" standalone="no"?>
<svg
   id="Layer_2"
   data-name="Layer 2"
   viewBox="0 0 1280 1280"
   version="1.1"
   sodipodi:docname="Ubuntu_WSL_Standard_19px.svg"
   width="1280"
   height="1280"
   inkscape:version="1.1.2 (0a00cf5339, 2022-02-04)"
   xmlns:inkscape="http://www.inkscape.org/namespaces/inkscape"
   xmlns:sodipodi="http://sodipodi.sourceforge.net/DTD/sodipodi-0.dtd"
   xmlns="http://www.w3.org/2000/svg"
   xmlns:svg="http://www.w3.org/2000/svg">
  <sodipodi:namedview
     id="namedview21"
     pagecolor="#ffffff"
     bordercolor="#111111"
     borderopacity="1"
     inkscape:pageshadow="0"
     inkscape:pageopacity="0"
     inkscape:pagecheckerboard="1"
     showgrid="false"
     fit-margin-top="0"
     fit-margin-left="0"
     fit-margin-right="0"
     fit-margin-bottom="0"
     inkscape:zoom="0.5"
     inkscape:cx="640"
     inkscape:cy="641"
     inkscape:window-width="1920"
     inkscape:window-height="1016"
     inkscape:window-x="0"
     inkscape:window-y="27"
     inkscape:window-maximized="1"
     inkscape:current-layer="Layer_2" />
  <defs
     id="defs4">
    <style
       id="style2">.cls-1{fill:#e95420;}.cls-2{fill:#fff;}</style>
  </defs>
  <rect
     class="cls-1"
     width="1280"
     height="1280"
     id="rect6"
     x="0"
     y="0"
     style="stroke-width:67.3684" />
  <circle
     class="cls-2"
     cx="286.9895"
     cy="633.26312"
     r="134.06316"
     id="circle8"
     style="stroke-width:67.3684" />
  <circle
     class="cls-2"
     cx="844.12628"
     cy="338.86316"
     r="134.06316"
     id="circle10"
     style="stroke-width:67.3684" />
  <path
     class="cls-2"
     d="M 588.8,976.84211 A 324.04211,324.04211 0 0 1 367.15789,808.42105 196.04211,196.04211 0 0 1 253.30526,822.56842 434.52632,434.52632 0 0 0 567.24211,1085.3053 445.97895,445.97895 0 0 0 662.23158,1095.4105 185.93684,185.93684 0 0 1 623.15789,983.57895 117.89474,117.89474 0 0 1 588.8,976.84211 Z"
     id="path12"
     style="stroke-width:67.3684" />
  <circle
     class="cls-2"
     cx="813.81055"
     cy="978.18951"
     r="134.06316"
     id="circle14"
     style="stroke-width:67.3684" />
  <path
     class="cls-2"
     d="m 999.74737,929.01053 a 434.52632,434.52632 0 0 0 22.23153,-512.67369 192.67368,192.67368 0 0 1 -74.7789,87.57895 336.84211,336.84211 0 0 1 30.98947,222.31579 317.97895,317.97895 0 0 1 -42.4421,103.74737 177.17895,177.17895 0 0 1 64,99.03158 z"
     id="path16"
     style="stroke-width:67.3684" />
  <path
     class="cls-2"
     d="m 276.21053,441.26316 h 10.10526 a 156.29474,156.29474 0 0 1 39.74737,4.0421 177.85263,177.85263 0 0 1 60.63158,24.92632 328.75789,328.75789 0 0 1 263.41052,-141.47369 239.83158,239.83158 0 0 1 4.04211,-29.6421 A 182.56842,182.56842 0 0 1 691.2,220.96842 437.22105,437.22105 0 0 0 276.21053,441.26316 Z"
     id="path18"
     style="stroke-width:67.3684" />
</svg>
