<?xml version="1.0" encoding="UTF-8" standalone="no"?>
<svg
   id="Layer_1"
   data-name="Layer 1"
   viewBox="0 0 2480 1200"
   version="1.1"
   sodipodi:docname="SplashScreen.svg"
   width="2480"
   height="1200"
   inkscape:version="1.1.1 (3bf5ae0d25, 2021-09-20)"
   xmlns:inkscape="http://www.inkscape.org/namespaces/inkscape"
   xmlns:sodipodi="http://sodipodi.sourceforge.net/DTD/sodipodi-0.dtd"
   xmlns="http://www.w3.org/2000/svg"
   xmlns:svg="http://www.w3.org/2000/svg">
  <sodipodi:namedview
     id="namedview13"
     pagecolor="#959595"
     bordercolor="#666666"
     borderopacity="1.0"
     inkscape:pageshadow="2"
     inkscape:pageopacity="0"
     inkscape:pagecheckerboard="true"
     showgrid="false"
     width="310px"
     height="150px"
     inkscape:zoom="0.29857056"
     inkscape:cx="1269.3817"
     inkscape:cy="601.19793"
     inkscape:window-width="1920"
     inkscape:window-height="1016"
     inkscape:window-x="0"
     inkscape:window-y="27"
     inkscape:window-maximized="1"
     inkscape:current-layer="Layer_1" />
  <defs
     id="defs4">
    <style
       id="style2">.cls-1{fill:#fff;}.cls-2{fill:#e95420;}.cls-3{fill:#fff;font-size:20px;font-family:Ubuntu-Light, Ubuntu;font-weight:300;}.cls-4{letter-spacing:-0.1em;}</style>
  </defs>
  <rect
     class="cls-2"
     id="rect32"
     width="2480"
     height="1200"
     x="0"
     y="0"
     style="stroke-width:8" />
  <g
     id="g22"
     transform="matrix(8,0,0,8,587.48138,-64.39999)">
    <circle
       class="cls-1"
       cx="80"
       cy="65.879997"
       r="50"
       id="circle6" />
    <path
       class="cls-2"
       d="m 54.05,65.88 a 6.43,6.43 0 1 1 -6.43,-6.42 6.43,6.43 0 0 1 6.43,6.42 z M 90.63,97.14 A 6.43,6.43 0 1 0 93,88.36 6.42,6.42 0 0 0 90.63,97.14 Z M 101.76,41.06 A 6.43,6.43 0 1 0 93,43.41 6.43,6.43 0 0 0 101.76,41.06 Z M 80,47.55 a 18.33,18.33 0 0 1 18.26,16.71 l 9.31,-0.15 a 27.59,27.59 0 0 0 -8.12,-17.83 9,9 0 0 1 -12.2,-7.05 27.73,27.73 0 0 0 -19.5,1.9 l 4.53,8.12 A 18.25,18.25 0 0 1 80,47.55 Z M 61.67,65.88 a 18.32,18.32 0 0 1 7.79,-15 l -4.77,-8 a 27.63,27.63 0 0 0 -11.4,15.94 9,9 0 0 1 0,14.09 27.63,27.63 0 0 0 11.4,15.94 l 4.77,-8 A 18.32,18.32 0 0 1 61.67,65.88 Z M 80,84.22 a 18.25,18.25 0 0 1 -7.72,-1.7 l -4.53,8.12 a 27.73,27.73 0 0 0 19.5,1.9 9,9 0 0 1 12.2,-7.05 27.56,27.56 0 0 0 8.11,-17.84 l -9.3,-0.14 A 18.33,18.33 0 0 1 80,84.22 Z"
       id="path8" />
    <text
       class="cls-3"
       id="text10"
       transform="translate(38.05,146.52)">{{.ReleaseVersion}}</text>
  </g>
</svg>
