<?xml version="1.0" encoding="UTF-8" standalone="no"?>
<!-- Generator: Adobe Illustrator 25.0.1, SVG Export Plug-In . SVG Version: 6.00 Build 0)  -->

<svg
   version="1.1"
   id="Layer_1"
   x="0px"
   y="0px"
   viewBox="0 0 1280 1281"
   xml:space="preserve"
   sodipodi:docname="LargeTile.svg"
   inkscape:version="1.1.2 (0a00cf5339, 2022-02-04)"
   width="1280"
   height="1281"
   xmlns:inkscape="http://www.inkscape.org/namespaces/inkscape"
   xmlns:sodipodi="http://sodipodi.sourceforge.net/DTD/sodipodi-0.dtd"
   xmlns="http://www.w3.org/2000/svg"
   xmlns:svg="http://www.w3.org/2000/svg"><defs
   id="defs31" /><sodipodi:namedview
   id="namedview29"
   pagecolor="#ffffff"
   bordercolor="#111111"
   borderopacity="1"
   inkscape:pageshadow="0"
   inkscape:pageopacity="0"
   inkscape:pagecheckerboard="1"
   showgrid="false"
   inkscape:zoom="0.73126247"
   inkscape:cx="1543.9053"
   inkscape:cy="624.26286"
   inkscape:window-width="1920"
   inkscape:window-height="1016"
   inkscape:window-x="0"
   inkscape:window-y="27"
   inkscape:window-maximized="1"
   inkscape:current-layer="Layer_1"
   fit-margin-top="0"
   fit-margin-left="0"
   fit-margin-right="0"
   fit-margin-bottom="0" />
<style
   type="text/css"
   id="style2">	.st0 { fill:#FFFFFF; }
	.st1 { fill:#E95420; }
	.st2 { font-family:'Ubuntu-Light'; }
	.st3 { font-size:16px; }
	.st4 { letter-spacing:-1; }
</style>
<rect
   class="st1"
   id="rect870"
   width="1280"
   height="1280"
   x="0"
   y="1.0000123"
   style="stroke-width:10" /><g
   id="g20"
   transform="matrix(10,0,0,10,0,1)">
	<rect
   x="26.700001"
   y="-0.1"
   class="st0"
   width="74.400002"
   height="95.199997"
   id="rect4" />
	<g
   id="g18">
		<circle
   class="st1"
   cx="42.900002"
   cy="57.700001"
   r="7.8000002"
   id="circle6" />
		<circle
   class="st1"
   cx="75.400002"
   cy="40.599998"
   r="7.8000002"
   id="circle8" />
		<path
   class="st1"
   d="m 60.6,77.8 c -5.7,-1.3 -10.3,-4.8 -13,-9.9 -2.1,1 -4.4,1.3 -6.7,0.8 3.2,7.9 10,13.5 18.3,15.3 1.9,0.4 3.7,0.6 5.6,0.6 -1.4,-1.9 -2.2,-4.2 -2.3,-6.5 -0.7,0 -1.3,-0.2 -1.9,-0.3 z"
   id="path10" />
		<circle
   class="st1"
   cx="73.699997"
   cy="77.800003"
   r="7.8000002"
   id="circle12" />
		<path
   class="st1"
   d="m 84.6,75 c 2.5,-3.1 4.2,-6.7 5,-10.5 1.4,-6.7 0.1,-13.8 -3.6,-19.4 -0.9,2.1 -2.5,3.9 -4.4,5.1 2.1,3.9 2.8,8.6 1.8,12.9 -0.4,2.2 -1.3,4.2 -2.5,6 1.8,1.6 3,3.6 3.7,5.9 z"
   id="path14" />
		<path
   class="st1"
   d="m 42.3,46.5 c 0.2,0 0.4,0 0.6,0 0.8,0 1.6,0.1 2.4,0.2 1.3,0.3 2.5,0.7 3.6,1.4 3.5,-5 9.1,-8.1 15.3,-8.1 0,-0.6 0.1,-1.2 0.2,-1.8 0.4,-1.6 1.1,-3.3 2.2,-4.5 C 56.8,32.9 47.2,38 42.3,46.5 Z"
   id="path16" />
	</g>
</g>
<text
   class="st0 st2 st3"
   id="text22"
   x="300.7608"
   y="1172.592"
   style="fill:#fff;stroke-width:10;-inkscape-font-specification:'Ubuntu Light';font-family:Ubuntu;font-size:160px;font-stretch:normal;font-weight:300;font-variant:normal;font-style:normal;">{{.IconVersion}}</text>


</svg>
