<?xml version="1.0" encoding="UTF-8" standalone="no"?>
<svg
   id="Layer_1"
   data-name="Layer 1"
   viewBox="0 0 1280 1280"
   version="1.1"
   sodipodi:docname="Ubuntu_WSL_Preview_19px.svg"
   width="1280"
   height="1280"
   inkscape:version="1.1.2 (0a00cf5339, 2022-02-04)"
   xmlns:inkscape="http://www.inkscape.org/namespaces/inkscape"
   xmlns:sodipodi="http://sodipodi.sourceforge.net/DTD/sodipodi-0.dtd"
   xmlns="http://www.w3.org/2000/svg"
   xmlns:svg="http://www.w3.org/2000/svg">
  <sodipodi:namedview
     id="namedview21"
     pagecolor="#ffffff"
     bordercolor="#111111"
     borderopacity="1"
     inkscape:pageshadow="0"
     inkscape:pageopacity="0"
     inkscape:pagecheckerboard="1"
     showgrid="false"
     fit-margin-top="0"
     fit-margin-left="0"
     fit-margin-right="0"
     fit-margin-bottom="0"
     inkscape:zoom="0.41053452"
     inkscape:cx="640.62823"
     inkscape:cy="639.4103"
     inkscape:window-width="1920"
     inkscape:window-height="1016"
     inkscape:window-x="0"
     inkscape:window-y="27"
     inkscape:window-maximized="1"
     inkscape:current-layer="Layer_1" />
  <defs
     id="defs4">
    <style
       id="style2">.cls-1{fill:#e95420;}
.cls-3{fill:#fff;}
.cls-2 { 
    fill:none;
    stroke:#e65821;
    stroke-miterlimit:10;
    stroke-width:26px;
}</style>
  </defs>
  <rect
     class="cls-3"
     id="rect1044"
     width="1280"
     height="1280"
     x="0"
     y="0" />
  <path
     class="cls-1"
     d="M 1253.0526,26.94737 V 1253.0526 H 26.94737 V 26.94737 H 1253.0526 M 1280,0 H 0 v 1280 h 1280 z"
     id="path6"
     style="stroke-width:67.3684" />
  <circle
     class="cls-2"
     cx="266.77896"
     cy="625.17896"
     r="138.77895"
     id="circle8" />
  <circle
     class="cls-2"
     cx="848.84216"
     cy="319.32629"
     r="138.77895"
     id="circle10" />
  <path
     class="cls-2"
     d="M 581.38947,984.25263 A 336.84211,336.84211 0 0 1 349.64211,808.42105 202.10526,202.10526 0 0 1 229.72632,823.24211 454.73684,454.73684 0 0 0 556.46316,1098.1053 449.34737,449.34737 0 0 0 655.49474,1108.2105 208.16842,208.16842 0 0 1 613.72632,991.66316 C 606.31579,988.96842 593.51579,985.6 581.38947,984.25263 Z"
     id="path12" />
  <circle
     class="cls-2"
     cx="816.50525"
     cy="984.25256"
     r="138.77895"
     id="circle14" />
  <path
     class="cls-2"
     d="m 1010.5263,933.72632 a 459.45263,459.45263 0 0 0 23.579,-538.94737 196.71579,196.71579 0 0 1 -77.47372,94.31579 344.25263,344.25263 0 0 1 -13.47369,340.21052 202.10526,202.10526 0 0 1 67.36841,104.42106 z"
     id="path16" />
  <path
     class="cls-2"
     d="m 256,423.74737 h 13.47368 a 227.70526,227.70526 0 0 1 42.44211,4.71579 218.27368,218.27368 0 0 1 67.36842,24.92631 A 336.84211,336.84211 0 0 1 646.73684,307.2 a 122.61053,122.61053 0 0 1 4.04211,-30.98947 194.02105,194.02105 0 0 1 38.4,-81.51579 A 461.47368,461.47368 0 0 0 256,423.74737 Z"
     id="path18" />
</svg>
